Coordinates
version=1
nRows=12
nColumns=19
inDegrees=yes

Units are S.I. units (second, meters, Newtons, ...)
If the header above contains a line with 'inDegrees', this indicates whether rotational values are in degrees (yes) or radians (no).

endheader
time	pelvis_tilt	pelvis_list	pelvis_rotation	pelvis_tx	pelvis_ty	pelvis_tz	hip_flexion_r	hip_adduction_r	hip_rotation_r	knee_angle_r	knee_angle_r_beta	ankle_angle_r	hip_flexion_l	hip_adduction_l	hip_rotation_l	knee_angle_l	knee_angle_l_beta	ankle_angle_l
     13.79333333	     -2.06383469	      7.55767539	      6.28306124	      2.15687299	      0.96133601	      1.00014127	    -12.51995384	    -11.56857423	    -14.00085640	     71.80906031	      1.25330454	    -12.97389958	     26.08357527	     12.13778898	     -5.17091111	     15.06530079	      0.26293910	      4.56144894
     13.80000000	     -2.07679638	      7.96654481	      7.28380935	      2.15519462	      0.95743773	      0.99912243	    -10.77027750	    -11.83182797	    -13.78222432	     76.19733961	      1.32989446	    -12.69004830	     26.47306398	     12.65049608	     -6.06450880	     18.14349300	      0.31666369	      4.39644801
     13.80666667	     -2.04664457	      8.33887527	      8.35727382	      2.15355454	      0.95325965	      0.99808071	     -9.04773961	    -12.16179273	    -13.78639232	     80.36122125	      1.40256790	    -12.41286430	     26.77643784	     13.08029171	     -6.73003793	     21.51829101	      0.37556503	      4.52822657
     13.81333333	     -1.37140598	      9.05381610	      9.39714232	      2.15209989	      0.94963145	      0.99712344	     -8.17938010	    -12.96119292	    -14.12857543	     84.14265431	      1.46856636	    -12.04105946	     26.11302827	     13.75045718	     -7.12385668	     24.78994270	      0.43266612	      4.94990453
     13.82000000	     -1.79588369	      8.98928944	     10.48094960	      2.15031746	      0.94452156	      0.99597273	     -5.68100186	    -13.15547606	    -14.12302509	     87.92902143	      1.53465093	    -11.54431562	     26.84929489	     13.76351998	     -7.06237685	     28.53203625	      0.49797797	      5.89546341
     13.82666667	     -1.78766129	      9.17882088	     11.45412156	      2.14868186	      0.94000869	      0.99491905	     -3.70029644	    -13.72147666	    -14.20618845	     91.32966294	      1.59400332	    -10.91025994	     26.79998445	     14.00733490	     -6.68752521	     31.93674903	      0.55740142	      7.23313415
     13.83333333	     -1.81237827	      9.28361486	     12.29970261	      2.14701671	      0.93565870	      0.99385101	     -1.53779713	    -14.35390006	    -14.15927160	     94.43374969	      1.64817986	    -10.17606754	     26.58734850	     14.21264367	     -5.99220828	     35.08987179	      0.61243380	      9.00316356
     13.84000000	     -1.49488567	      9.51870163	     12.92762766	      2.14543781	      0.93215859	      0.99288567	      0.31227405	    -15.21520884	    -14.00605772	     97.13101279	      1.69525598	     -9.30511306	     25.65626199	     14.50325138	     -5.09941944	     37.74278275	      0.65873583	     11.07719009
     13.84666667	     -1.04928615	      9.76125645	     13.31330210	      2.14392500	      0.92932358	      0.99204235	      2.19392589	    -16.13201503	    -13.59152524	     99.43546587	      1.73547627	     -8.56715470	     24.30252819	     14.75826907	     -4.11428400	     39.95684057	      0.69737843	     13.51362103
     13.85333333	     -2.11160138	      9.14640239	     13.72986943	      2.14208747	      0.92512995	      0.99107640	      6.28893030	    -16.39307764	    -12.76496923	    101.64655112	      1.77406699	     -7.59679962	     24.69999523	     14.46888272	     -3.00289474	     42.16257466	      0.73587575	     15.96076085
     13.86000000	     -2.19221936	      9.00551627	     13.65800641	      2.14065522	      0.92299606	      0.99066143	      9.29478403	    -16.96113327	    -11.71697610	    103.23461192	      1.80178388	     -6.75894449	     23.46492651	     14.31089538	     -2.13859710	     43.47462796	      0.75877540	     18.40691706
     13.86666667	     -2.22748654	      8.79738757	     13.36112227	      2.13942622	      0.92172981	      0.99048291	     12.39002790	    -17.34714085	    -10.49076438	    104.32920683	      1.82088817	     -5.99921321	     21.86979142	     13.99570669	     -1.38201322	     44.21301041	      0.77166260	     20.69165866
